<svg width="16" height="12" viewBox="0 0 16 12" fill="none" xmlns="http://www.w3.org/2000/svg">
<path d="M15.7235 2.44019C15.5276 1.58928 14.8316 0.961504 13.9938 0.867858C12.0097 0.646377 10.0015 0.645221 8.00256 0.646377C6.00328 0.645221 3.99476 0.646377 2.01067 0.867858C1.17331 0.961504 0.477812 1.58928 0.28193 2.44019C0.00313807 3.65198 0 4.97476 0 6.22239C0 7.47002 0 8.79263 0.278792 10.0042C0.474343 10.855 1.17 11.4828 2.00787 11.5766C3.99178 11.7982 6.00014 11.7994 7.99942 11.7982C9.99903 11.7994 12.0069 11.7982 13.9906 11.5766C14.828 11.4829 15.5242 10.8552 15.7201 10.0042C15.999 8.79246 16 7.46985 16 6.22239C16 4.97476 16.0023 3.65198 15.7235 2.44019ZM5.93524 8.70575C5.93524 6.93588 5.93524 5.18451 5.93524 3.41448C7.63095 4.29925 9.31543 5.17807 11.0219 6.06829C9.32071 6.95058 7.63541 7.82412 5.93524 8.70575Z" fill="#707683"/>
</svg>
